<svg width="32" height="32" xmlns="http://www.w3.org/2000/svg"><path fill-rule="evenodd" clip-rule="evenodd" d="M10 11H2v17h8V11zM0 9v21h12V9H0z"/><path d="M7.5 15.5a1.5 1.5 0 11-3 0 1.5 1.5 0 013 0z"/><path fill-rule="evenodd" clip-rule="evenodd" d="M6 21a1 1 0 100 2 1 1 0 000-2zm-3 1a3 3 0 116 0 3 3 0 01-6 0z"/><path d="M17 25h3v5h-3v-5z" fill="#fff"/><path fill-rule="evenodd" clip-rule="evenodd" d="M17 25v5h3v-5h-3z"/><path d="M14 28h9v2h-9v-2z" fill="#fff"/><path fill-rule="evenodd" clip-rule="evenodd" d="M14 28v2h9v-2h-9zM6 7h24v16H12v2h20V5H4v4h2V7z"/></svg>